<svg xmlns="http://www.w3.org/2000/svg" viewBox="0 0 1874.99 726.91"><defs><style>.cls-1{opacity:0.95;}.cls-2{fill:#013d71;stroke:#4a03ff;stroke-miterlimit:10;}.cls-3{fill:#86898e;}.cls-4{fill:#fff;}</style></defs><title>logo</title><g id="fioletowe_Image" data-name="fioletowe Image" class="cls-1"><path class="cls-2" d="M665.62,222c14.49-12.42,74.22-62.26,182-107,31.47-13.06,54.8-20.61,90-32a1666.49,1666.49,0,0,1,163-44,1529.79,1529.79,0,0,1,187-28s94-8,205-2c20.82,1.13,45.73,3,77,10a414,414,0,0,1,184,94c38.71,34.3,61.12,67.16,67,76a368.26,368.26,0,0,1,50,111,348.07,348.07,0,0,1,11,100c-.69,16.83-2.29,49.32-16,89-4.44,12.87-19.94,54.8-57,98a344.75,344.75,0,0,1-45,43c-43.92,35.26-85.17,51.61-112,62-11.81,4.58-53.15,20.1-120,31-16.19,2.64-88.28,13.88-197,8-79.11-4.28-136.18-15.38-201-28-20.23-3.93-100-19.79-204-51-73.64-22.11-144.16-47.35-201-80a505.53,505.53,0,0,1-69-48c-15.73-13-30.36-25.2-46-45-12.29-15.56-24.19-30.62-32-54-2.91-8.71-14.18-45.3-1-88,1.07-3.44,5.36-16.89,19-39C622.88,260.27,649.7,235.62,665.62,222Z" transform="translate(-7.39 -6.23)"/></g><g id="grafitowe_Image" data-name="grafitowe Image" class="cls-1"><path class="cls-3" d="M158.62,58c31.26-11.29,64.59-18.86,122-24a1144.86,1144.86,0,0,1,156-3c45.14,2,113.83,6.51,210,20,46.16,6.48,141.79,21.08,264,50,25,5.92,126,30.15,252,72,0,0,67.88,22.54,183,77a408,408,0,0,1,67,41c17.23,12.92,33.32,27.09,48,47,15.81,21.45,19,34.55,20,40a84.74,84.74,0,0,1-2,39c-5.51,20.47-16.89,35.5-31,50-24.69,25.39-51.28,42.51-92,64-49.24,26-88.06,42-93,44-17.48,7.15-54.53,21.82-134,46-91.69,27.91-160.29,44.28-222,59-6.19,1.48-47.91,11.38-103,22-38.18,7.36-51.71,9.08-60,10-8.71,1-44,4.68-93,2-76.23-4.17-139.76-21.29-166-29-19.39-5.69-101.48-30.65-196-89a890.53,890.53,0,0,1-126-95c-19.57-17.64-39.68-35.91-63-64-18.32-22.06-44.81-54.45-66-103-15-34.38-28.14-64.48-26-106,.68-13.13,2.79-46.25,24-80,15.18-24.14,33.14-37.48,50-50C93.06,89.47,117.29,72.9,158.62,58Z" transform="translate(-7.39 -6.23)"/></g><g id="Grafit_Image" data-name="Grafit Image"><path class="cls-4" d="M452.62,330.13h0c52.42.84,86.31.84,86.31.84,19.27,0,47.45-.2,82.13-1.25q-17,71.64-33.94,143.3a168.94,168.94,0,0,1-23,13c-5.39,2.5-11.77,5.11-29.33,10.47-23.28,7.11-34.92,10.66-50.92,13.34a287.87,287.87,0,0,1-32.46,3.42c-19.21,1.21-38.19,2.4-60.34-.84-15.54-2.27-34.35-5-55.31-16.76A131.38,131.38,0,0,1,283.76,442c-11.14-22.12-12.38-41.43-13.41-57.4-.53-8.18-2.26-43.44,13.83-85.48,5.21-13.63,17.64-45.08,48.18-74.58,34.82-33.64,72.38-44.65,88-49,8.31-2.33,42.16-11.28,85.9-6.28,20.51,2.34,44,5.29,69.14,20.95,8,5,20.72,13.09,32,28,13.36,17.66,21.28,40.39,27.09,57.06l0,0-71.23,6.29A88.36,88.36,0,0,0,557,266.86a94.47,94.47,0,0,0-12.15-17.17c-16-17.33-39.16-22.12-46.09-23.47-16.08-3.12-28.71-1.38-38.13,0-13.13,1.93-40.06,5.87-64.95,26-27,21.81-36,50.05-41.48,67-6.76,21.11-7.55,38.82-8.38,57.4-.67,15.11.26,21.65,1.68,27.24s6.38,24.1,23.46,37.29c2.15,1.66,9.36,7,23.88,11.31,9.13,2.72,27.8,7,59.5,2.52,36.22-5.14,69-18.84,70.4-19.28l10.89-49.86-96.79.84C447.81,349.78,452.62,330.13,452.62,330.13Z" transform="translate(-7.39 -6.23)"/><path class="cls-4" d="M704.17,265.77h69.56l-10.14,45.29c8.44-9.62,16-17.25,21.74-22.83,9.14-8.83,13.5-12.14,18-14.93a82.56,82.56,0,0,1,16.5-8,71.33,71.33,0,0,1,20.61-4.24c19.22-.83,36.3,8,36.56,7.24,0-.17-.72-.74-.73-.73l.73.73-27.51,52.9s-18.45-3.06-31.88-1.45c-14.67,1.76-24.94,9.3-31.52,14.13-20.83,15.29-29.19,36.4-33.69,48.18-1.27,3.32-3.26,10.79-7.25,25.73-2.3,8.62-5.26,20-11.16,44.57-6.78,28.22-13.11,55.78-13.11,55.78L648,507.78S704.17,265.77,704.17,265.77Z" transform="translate(-7.39 -6.23)"/><path class="cls-4" d="M1101,299.13c-10.74-20.06-32.07-27.56-41.84-31-10.51-3.7-19.5-4.58-32.85-5.89a207.37,207.37,0,0,0-34.4-.62,187.93,187.93,0,0,0-42.51,8c-12.32,3.85-18.69,7.29-20.71,8.41A91.67,91.67,0,0,0,909.82,292a89.91,89.91,0,0,0-15.61,19.89,199.84,199.84,0,0,0-8.87,18.54l72.83,5a38.17,38.17,0,0,1,12.4-18c8.09-6.37,16.82-7.44,21.69-8.05,3.29-.42,7-.28,14.57,0,12,.44,15.08,1.6,16.42,2.17a23.74,23.74,0,0,1,10.85,8.36c4.18,6.14,3.93,13,3.72,18.6-.29,7.94-.35,11.91-3.1,15.19,0,0-3.39,4-27.58,5.88-18.11,1.67-32.91,3.07-43.08,4-32.32,3.07-40,3.9-51.14,7.44-13.2,4.19-26.67,8.46-38.74,21.08-14.29,14.93-17.63,32.16-18.6,37.5-1.16,6.44-4.51,26.66,6.82,47.41,14.39,26.35,41.35,33.24,47.11,34.72,11.43,2.92,20.4,2.35,28.2,1.86,31.59-2,54.77-17.15,61.86-23.14,1-.85,10.67-9.1,10.67-9.1l6.51,27h69.42s-4.75-19.33-4.34-38.43c.09-4.34.45-8.57,2.48-20.77,3.89-23.36,8.65-44.26,15.8-74.69,4.66-19.82,5.31-22.28,5.89-28.2C1107.62,329.87,1109.16,314.28,1101,299.13Zm-92.35,140.08c-14.53,20.12-38.83,24.06-44.63,24.8-6.9.88-17.41,2.08-27.28-4-2.48-1.54-8.93-5.66-11.77-13.64-4.26-11.95,2.88-23.2,3.72-24.48,3.18-4.84,8.92-10.24,41.22-17.36,27.09-6,53.92-9,53.92-9S1021.36,421.65,1008.69,439.21Z" transform="translate(-7.39 -6.23)"/><path class="cls-4" d="M1368,179.77h0c-45.71-12.28-74.58-11-74.58-11-17.32.76-34.53,1.75-50.12,13.86-16,12.42-22.81,30.72-23.64,33-.47,1.31-2.62,10.38-6.92,28.52-1.5,6.33-5.3,22.42-5.3,22.42h0l-42.79.4q-5.51,24.66-11,49.31l42,.41h0l-44.83,191.12h0l72.54.41h0L1269,315.88h0l51.76.4h0l11.41-50.12h0l-52.16.41h0a200.27,200.27,0,0,1,4.48-21.19c2.86-10.19,4.29-15.28,8.15-19.16,6.08-6.11,14.13-7.18,18.34-7.74,6.75-.9,11.74.23,21.6,2.44,9.5,2.14,20,5.71,20,5.71h0Z" transform="translate(-7.39 -6.23)"/><path class="cls-4" d="M1395.74,174.06h72.54l-13.45,59.5-72.95.4S1395.74,174.06,1395.74,174.06Z" transform="translate(-7.39 -6.23)"/><path class="cls-4" d="M1373.73,266.57h73S1390,508.22,1390,508.22h0l-72.94-.41h0l56.64-241.24Z" transform="translate(-7.39 -6.23)"/><path class="cls-4" d="M1619.87,181l-19.15,85.17,43.9.81-10.08,49.72-45,.05c-16.74,69.13-28,119.91-28.74,126.69-1,9,2.86,13.85,2.86,13.85s.11.15.23.29c4.46,5.33,14.72,5.54,20.4,5.51a196.4,196.4,0,0,0,25-1.72l-11,48.9-.06,0c-9.11,2.32-19.39,3.8-38.94,3.64-12.36-.11-18.54-.16-26.53-1.4-7.09-1.1-13.71-2.19-21.65-6a53.81,53.81,0,0,1-16.2-11.59,44.58,44.58,0,0,1-7.26-10.47,42.79,42.79,0,0,1-3.77-12.85,61.78,61.78,0,0,1,1.07-22.48c13.4-58,31.75-132.67,31.75-132.67q-9.15-.13-18.45-.17-9.13,0-18.13,0l11-49.31,36.27-.4,8.15-39.53Z" transform="translate(-7.39 -6.23)"/></g></svg>